<svg xmlns="http://www.w3.org/2000/svg" viewBox="0 0 96 96" role="img" aria-label="Andy profile picture">
  <defs>
    <linearGradient id="bg" x1="12" y1="10" x2="84" y2="88" gradientUnits="userSpaceOnUse">
      <stop offset="0" stop-color="#8b5cf6"/>
      <stop offset="1" stop-color="#0f9f8f"/>
    </linearGradient>
  </defs>
  <rect width="96" height="96" rx="48" fill="url(#bg)"/>
  <path d="M22 83c4-18 16-28 26-28s22 10 26 28" fill="#35216a"/>
  <circle cx="48" cy="39" r="20" fill="#ffd7ba"/>
  <path d="M28 38c1-15 10-24 22-24 11 0 18 7 20 18-10-3-20-7-31-3-4 1-8 4-11 9z" fill="#2c1a38"/>
  <circle cx="40" cy="41" r="2.5" fill="#2c1a38"/>
  <circle cx="56" cy="41" r="2.5" fill="#2c1a38"/>
  <path d="M41 50c4 4 10 4 14 0" fill="none" stroke="#9f5635" stroke-width="3" stroke-linecap="round"/>
</svg>
