<svg xmlns="http://www.w3.org/2000/svg" viewBox="0 0 96 96" role="img" aria-label="Bima profile picture">
  <defs>
    <linearGradient id="bg" x1="10" y1="12" x2="86" y2="84" gradientUnits="userSpaceOnUse">
      <stop offset="0" stop-color="#f97316"/>
      <stop offset="1" stop-color="#dc2626"/>
    </linearGradient>
  </defs>
  <rect width="96" height="96" rx="48" fill="url(#bg)"/>
  <path d="M21 84c5-18 17-28 27-28s22 10 27 28" fill="#7f1d1d"/>
  <circle cx="48" cy="39" r="20" fill="#d9956b"/>
  <path d="M28 36c2-13 10-22 21-22 10 0 18 7 20 18-7-4-16-5-25-4-6 1-11 4-16 8z" fill="#2a201b"/>
  <path d="M34 34c9 3 19 3 29-1" fill="none" stroke="#2a201b" stroke-width="8" stroke-linecap="round"/>
  <circle cx="40" cy="42" r="2.4" fill="#2a201b"/>
  <circle cx="56" cy="42" r="2.4" fill="#2a201b"/>
  <path d="M42 51c4 3 8 3 12 0" fill="none" stroke="#7c432d" stroke-width="3" stroke-linecap="round"/>
</svg>
