<svg xmlns="http://www.w3.org/2000/svg" viewBox="0 0 96 96" role="img" aria-label="Dina profile picture">
  <defs>
    <linearGradient id="bg" x1="12" y1="10" x2="84" y2="86" gradientUnits="userSpaceOnUse">
      <stop offset="0" stop-color="#a855f7"/>
      <stop offset="1" stop-color="#ef4444"/>
    </linearGradient>
  </defs>
  <rect width="96" height="96" rx="48" fill="url(#bg)"/>
  <path d="M20 84c5-17 17-27 28-27s23 10 28 27" fill="#581c87"/>
  <circle cx="48" cy="40" r="19" fill="#e9a77d"/>
  <path d="M25 42c1-18 10-29 24-29 12 0 21 9 22 27-7-7-14-11-23-11-9 0-17 4-23 13z" fill="#28172f"/>
  <path d="M30 43c7-2 12-8 15-17 5 7 12 11 22 13" fill="none" stroke="#28172f" stroke-width="8" stroke-linecap="round"/>
  <circle cx="40" cy="43" r="2.4" fill="#28172f"/>
  <circle cx="56" cy="43" r="2.4" fill="#28172f"/>
  <path d="M41 52c4 3 10 3 14 0" fill="none" stroke="#7f432d" stroke-width="3" stroke-linecap="round"/>
</svg>
