<svg xmlns="http://www.w3.org/2000/svg" viewBox="0 0 96 96" role="img" aria-label="Laras profile picture">
  <defs>
    <linearGradient id="bg" x1="10" y1="12" x2="86" y2="84" gradientUnits="userSpaceOnUse">
      <stop offset="0" stop-color="#f59e0b"/>
      <stop offset="1" stop-color="#10b981"/>
    </linearGradient>
  </defs>
  <rect width="96" height="96" rx="48" fill="url(#bg)"/>
  <path d="M20 84c5-17 17-27 28-27s23 10 28 27" fill="#365314"/>
  <path d="M27 40c0-17 9-28 22-28 12 0 21 10 21 27v17c0 14-10 24-22 24S27 70 27 56V40z" fill="#41281f"/>
  <circle cx="48" cy="40" r="19" fill="#f0b484"/>
  <path d="M29 39c6-3 11-9 15-17 5 7 13 12 24 15-2-13-10-22-20-22-11 0-18 9-19 24z" fill="#41281f"/>
  <circle cx="40" cy="42" r="2.4" fill="#41281f"/>
  <circle cx="56" cy="42" r="2.4" fill="#41281f"/>
  <path d="M41 51c4 4 10 4 14 0" fill="none" stroke="#8b4a33" stroke-width="3" stroke-linecap="round"/>
</svg>
