<svg xmlns="http://www.w3.org/2000/svg" viewBox="0 0 96 96" role="img" aria-label="Maya profile picture">
  <defs>
    <linearGradient id="bg" x1="12" y1="8" x2="84" y2="88" gradientUnits="userSpaceOnUse">
      <stop offset="0" stop-color="#ec4899"/>
      <stop offset="1" stop-color="#f59e0b"/>
    </linearGradient>
  </defs>
  <rect width="96" height="96" rx="48" fill="url(#bg)"/>
  <path d="M20 84c5-17 17-27 28-27s23 10 28 27" fill="#7c2d12"/>
  <path d="M26 39c0-17 9-27 22-27s22 10 22 27v20c0 12-10 21-22 21S26 71 26 59V39z" fill="#3a2532"/>
  <circle cx="48" cy="40" r="19" fill="#f9c6a5"/>
  <path d="M30 38c8-1 15-5 20-13 4 7 10 11 18 13-3-13-10-21-20-21s-17 8-18 21z" fill="#3a2532"/>
  <circle cx="40" cy="42" r="2.4" fill="#3a2532"/>
  <circle cx="56" cy="42" r="2.4" fill="#3a2532"/>
  <path d="M41 51c4 4 10 4 14 0" fill="none" stroke="#8f4a34" stroke-width="3" stroke-linecap="round"/>
</svg>
