<svg xmlns="http://www.w3.org/2000/svg" viewBox="0 0 96 96" role="img" aria-label="Rafi profile picture">
  <defs>
    <linearGradient id="bg" x1="10" y1="10" x2="86" y2="86" gradientUnits="userSpaceOnUse">
      <stop offset="0" stop-color="#06b6d4"/>
      <stop offset="1" stop-color="#2563eb"/>
    </linearGradient>
  </defs>
  <rect width="96" height="96" rx="48" fill="url(#bg)"/>
  <path d="M21 84c5-18 17-28 27-28s22 10 27 28" fill="#172554"/>
  <circle cx="48" cy="39" r="20" fill="#c6865a"/>
  <path d="M29 35c2-13 9-21 20-21 10 0 17 6 19 17-8-5-16-7-25-5-5 1-10 4-14 9z" fill="#1f2937"/>
  <path d="M36 41h10m14 0H50" fill="none" stroke="#172554" stroke-width="3" stroke-linecap="round"/>
  <circle cx="41" cy="42" r="2.3" fill="#172554"/>
  <circle cx="55" cy="42" r="2.3" fill="#172554"/>
  <path d="M42 51c4 3 8 3 12 0" fill="none" stroke="#75462f" stroke-width="3" stroke-linecap="round"/>
</svg>
