<svg xmlns="http://www.w3.org/2000/svg" viewBox="0 0 96 96" role="img" aria-label="Sinta profile picture">
  <defs>
    <linearGradient id="bg" x1="8" y1="14" x2="86" y2="82" gradientUnits="userSpaceOnUse">
      <stop offset="0" stop-color="#22c55e"/>
      <stop offset="1" stop-color="#14b8a6"/>
    </linearGradient>
  </defs>
  <rect width="96" height="96" rx="48" fill="url(#bg)"/>
  <path d="M21 84c5-17 17-27 27-27s22 10 27 27" fill="#065f46"/>
  <circle cx="48" cy="40" r="19" fill="#f1b78d"/>
  <path d="M28 44c-1-19 8-31 21-31 12 0 20 9 20 25-12-8-26-10-41 6z" fill="#3b2f2f"/>
  <path d="M31 43c3-5 8-8 14-10 6-2 14-1 22 2" fill="none" stroke="#3b2f2f" stroke-width="8" stroke-linecap="round"/>
  <circle cx="40" cy="42" r="2.4" fill="#3b2f2f"/>
  <circle cx="56" cy="42" r="2.4" fill="#3b2f2f"/>
  <path d="M41 51c4 4 10 4 14 0" fill="none" stroke="#8b4a33" stroke-width="3" stroke-linecap="round"/>
</svg>
